<svg width="480" height="320" viewBox="0 0 480 320" xmlns="http://www.w3.org/2000/svg">
  <rect width="480" height="320" fill="#041208"/>
  <text x="20" y="30" font-family="Helvetica Neue,Arial,sans-serif" font-weight="700" font-size="14" fill="#86efac">Wallot — Color Palette</text>
  <!-- Swatches row 1 -->
  <rect x="20" y="50" width="60" height="60" rx="10" fill="#22c55e"/><text x="50" y="128" font-family="monospace" font-size="10" fill="#86efac" text-anchor="middle">#22c55e</text><text x="50" y="140" font-family="monospace" font-size="9" fill="#4ade80" text-anchor="middle">Primary</text>
  <rect x="96" y="50" width="60" height="60" rx="10" fill="#052e0f"/><text x="126" y="128" font-family="monospace" font-size="10" fill="#86efac" text-anchor="middle">#052e0f</text><text x="126" y="140" font-family="monospace" font-size="9" fill="#4ade80" text-anchor="middle">Dark</text>
  <rect x="172" y="50" width="60" height="60" rx="10" fill="#86efac"/><text x="202" y="128" font-family="monospace" font-size="10" fill="#86efac" text-anchor="middle">#86efac</text><text x="202" y="140" font-family="monospace" font-size="9" fill="#4ade80" text-anchor="middle">Light</text>
  <rect x="248" y="50" width="60" height="60" rx="10" fill="#0a4d1c"/><text x="278" y="128" font-family="monospace" font-size="10" fill="#86efac" text-anchor="middle">#0a4d1c</text><text x="278" y="140" font-family="monospace" font-size="9" fill="#4ade80" text-anchor="middle">Mid</text>
  <rect x="324" y="50" width="60" height="60" rx="10" fill="#0f5c22"/><text x="354" y="128" font-family="monospace" font-size="10" fill="#86efac" text-anchor="middle">#0f5c22</text><text x="354" y="140" font-family="monospace" font-size="9" fill="#4ade80" text-anchor="middle">Border</text>
  <rect x="400" y="50" width="60" height="60" rx="10" fill="#041208" stroke="#0f5c22" stroke-width="1"/><text x="430" y="128" font-family="monospace" font-size="10" fill="#86efac" text-anchor="middle">#041208</text><text x="430" y="140" font-family="monospace" font-size="9" fill="#4ade80" text-anchor="middle">BG</text>
  <!-- Swatches row 2 -->
  <rect x="20" y="160" width="60" height="60" rx="10" fill="#f87171"/><text x="50" y="238" font-family="monospace" font-size="10" fill="#86efac" text-anchor="middle">#f87171</text><text x="50" y="250" font-family="monospace" font-size="9" fill="#4ade80" text-anchor="middle">Expense</text>
  <rect x="96" y="160" width="60" height="60" rx="10" fill="#fbbf24"/><text x="126" y="238" font-family="monospace" font-size="10" fill="#86efac" text-anchor="middle">#fbbf24</text><text x="126" y="250" font-family="monospace" font-size="9" fill="#4ade80" text-anchor="middle">Warning</text>
  <rect x="172" y="160" width="60" height="60" rx="10" fill="#60a5fa"/><text x="202" y="238" font-family="monospace" font-size="10" fill="#86efac" text-anchor="middle">#60a5fa</text><text x="202" y="250" font-family="monospace" font-size="9" fill="#4ade80" text-anchor="middle">Info</text>
  <rect x="248" y="160" width="60" height="60" rx="10" fill="#a78bfa"/><text x="278" y="238" font-family="monospace" font-size="10" fill="#86efac" text-anchor="middle">#a78bfa</text><text x="278" y="250" font-family="monospace" font-size="9" fill="#4ade80" text-anchor="middle">Housing</text>
  <rect x="324" y="160" width="60" height="60" rx="10" fill="#fb923c"/><text x="354" y="238" font-family="monospace" font-size="10" fill="#86efac" text-anchor="middle">#fb923c</text><text x="354" y="250" font-family="monospace" font-size="9" fill="#4ade80" text-anchor="middle">Food</text>
  <rect x="400" y="160" width="60" height="60" rx="10" fill="#f472b6"/><text x="430" y="238" font-family="monospace" font-size="10" fill="#86efac" text-anchor="middle">#f472b6</text><text x="430" y="250" font-family="monospace" font-size="9" fill="#4ade80" text-anchor="middle">Health</text>
  <text x="20" y="290" font-family="Helvetica Neue,Arial,sans-serif" font-size="11" fill="#4ade80">Font: Helvetica Neue (display) · SF Pro Text (body iOS) · Roboto (body Android)</text>
</svg>